<?xml version="1.0" encoding="utf-8"?>
<!-- Generator: Adobe Illustrator 25.3.1, SVG Export Plug-In . SVG Version: 6.00 Build 0)  -->
<svg version="1.1" id="Layer_1" xmlns="http://www.w3.org/2000/svg" xmlns:xlink="http://www.w3.org/1999/xlink" x="0px" y="0px"
	 viewBox="0 0 250 256" style="enable-background:new 0 0 250 256;" xml:space="preserve">
<g>
	<g>
		<path d="M70.5,96.6h23.4v75.2H70.5V96.6z M82.2,59.3c7.5,0,13.5,6.1,13.5,13.5c0,7.5-6.1,13.6-13.5,13.6
			c-7.5,0-13.6-6.1-13.6-13.6C68.6,65.3,74.7,59.3,82.2,59.3 M108.5,171.8h23.4v-37.2c0-9.8,1.9-19.3,14-19.3
			c12,0,12.1,11.2,12.1,19.9v36.5h23.3v-41.2c0-20.2-4.4-35.8-28-35.8c-11.4,0-19,6.2-22.1,12.1h-0.3V96.6h-22.4V171.8z"/>
	</g>
	<path d="M125,5.7C57.6,5.7,2.7,60.6,2.7,128c0,67.4,54.9,122.3,122.3,122.3S247.3,195.4,247.3,128C247.3,60.6,192.4,5.7,125,5.7z
		 M125,234.6c-58.8,0-106.6-47.8-106.6-106.6C18.4,69.2,66.2,21.4,125,21.4c58.8,0,106.6,47.8,106.6,106.6
		C231.6,186.8,183.8,234.6,125,234.6z"/>
</g>
</svg>
