<?xml version="1.0" encoding="utf-8"?>
<!-- Generator: Adobe Illustrator 25.3.1, SVG Export Plug-In . SVG Version: 6.00 Build 0)  -->
<svg version="1.1" id="Layer_1" xmlns="http://www.w3.org/2000/svg" xmlns:xlink="http://www.w3.org/1999/xlink" x="0px" y="0px"
	 viewBox="0 0 250 256" style="enable-background:new 0 0 250 256;" xml:space="preserve">
<style type="text/css">
	.st0{display:none;}
	.st1{display:inline;}
	.st2{fill-rule:evenodd;clip-rule:evenodd;}
</style>
<g class="st0">
	<g class="st1">
		<path d="M70.5,96.6h23.4v75.2H70.5V96.6z M82.2,59.3c7.5,0,13.5,6.1,13.5,13.5c0,7.5-6.1,13.6-13.5,13.6
			c-7.5,0-13.6-6.1-13.6-13.6C68.6,65.3,74.7,59.3,82.2,59.3 M108.5,171.8h23.4v-37.2c0-9.8,1.9-19.3,14-19.3
			c12,0,12.1,11.2,12.1,19.9v36.5h23.3v-41.2c0-20.2-4.4-35.8-28-35.8c-11.4,0-19,6.2-22.1,12.1h-0.3V96.6h-22.4V171.8z"/>
	</g>
	<path class="st1" d="M125,5.7C57.6,5.7,2.7,60.6,2.7,128c0,67.4,54.9,122.3,122.3,122.3S247.3,195.4,247.3,128
		C247.3,60.6,192.4,5.7,125,5.7z M125,234.6c-58.8,0-106.6-47.8-106.6-106.6C18.4,69.2,66.2,21.4,125,21.4
		c58.8,0,106.6,47.8,106.6,106.6C231.6,186.8,183.8,234.6,125,234.6z"/>
</g>
<g class="st0">
	<g class="st1">
		<g>
			<path d="M165.7,94.4c0,4-3.3,7.3-7.3,7.3c-4,0-7.3-3.3-7.3-7.3c0-4,3.3-7.3,7.3-7.3C162.4,87,165.7,90.3,165.7,94.4z
				 M156.6,127.1c0,16.9-13.8,30.7-30.7,30.7c-16.9,0-30.7-13.8-30.7-30.7c0-16.9,13.8-30.7,30.7-30.7
				C142.8,96.4,156.6,110.2,156.6,127.1z M145.5,127.1c0-10.8-8.8-19.7-19.7-19.7c-10.8,0-19.7,8.8-19.7,19.7
				c0,10.8,8.8,19.7,19.7,19.7C136.7,146.8,145.5,138,145.5,127.1z M188,102.5c0-20.7-16.8-37.4-37.4-37.4H99.5
				C78.8,65,62,81.8,62,102.5v51.1c0,20.7,16.8,37.4,37.4,37.4h51.1c20.7,0,37.4-16.8,37.4-37.4V102.5z M175.7,153
				c0,14.2-11.5,25.7-25.7,25.7h-50c-14.2,0-25.7-11.5-25.7-25.7v-50c0-14.2,11.5-25.7,25.7-25.7h50c14.2,0,25.7,11.5,25.7,25.7V153
				z"/>
		</g>
		<path d="M125,6C57.7,6,3,60.7,3,128c0,67.3,54.7,122,122,122s122-54.7,122-122C247,60.7,192.3,6,125,6z M125,234.4
			c-58.6,0-106.4-47.7-106.4-106.4C18.6,69.4,66.4,21.6,125,21.6c58.6,0,106.4,47.7,106.4,106.4C231.4,186.6,183.6,234.4,125,234.4z
			"/>
	</g>
</g>
<g>
	<g>
		<path class="st2" d="M117.3,152.2c-0.1,0.4-0.2,0.7-0.3,1.1c-5,19.7-5.6,24-10.7,33.2c-2.5,4.3-5.2,8.5-8.3,12.4
			c-0.3,0.4-0.7,1-1.4,0.9c-0.8-0.2-0.8-0.8-0.9-1.4c-0.8-6-1.3-12-1.1-18c0.3-7.9,1.2-10.6,11.4-53.2c0.1-0.7,0-1.2-0.2-1.8
			c-2.4-6.5-2.9-13.2-0.8-19.9c4.6-14.5,21.1-15.7,24-3.7c1.8,7.4-2.9,17.1-6.5,31.5c-3,11.8,11,20.3,22.9,11.6
			c11-8,15.3-27.1,14.4-40.6c-1.6-27-31.2-32.8-50-24.1C88.2,90,83.3,116.7,93,128.9c1.2,1.6,2.2,2.5,1.8,4.1
			c-0.6,2.4-1.2,4.9-1.9,7.3c-0.5,1.8-2,2.5-3.8,1.7c-3.6-1.4-6.6-3.7-9-6.7c-8.3-10.2-10.6-30.4,0.3-47.6
			c12.1-19,34.6-26.6,55.1-24.3c24.5,2.8,40,19.6,42.9,38.6c1.3,8.7,0.4,30-11.8,45.1c-14,17.3-36.7,18.5-47.1,7.9
			C118.7,154.2,118.1,153.2,117.3,152.2z"/>
	</g>
	<path d="M124.9,7.5C57.7,7.5,3,62.2,3,129.4c0,67.2,54.7,121.9,121.9,121.9c67.2,0,121.9-54.7,121.9-121.9
		C246.9,62.2,192.2,7.5,124.9,7.5z M124.9,235.7c-58.6,0-106.3-47.7-106.3-106.3c0-58.6,47.7-106.3,106.3-106.3
		c58.6,0,106.3,47.7,106.3,106.3C231.2,188,183.6,235.7,124.9,235.7z"/>
</g>
</svg>
