<?xml version="1.0" encoding="utf-8"?>
<!-- Generator: Adobe Illustrator 25.3.1, SVG Export Plug-In . SVG Version: 6.00 Build 0)  -->
<svg version="1.1" id="Layer_1" xmlns="http://www.w3.org/2000/svg" xmlns:xlink="http://www.w3.org/1999/xlink" x="0px" y="0px"
	 viewBox="0 0 250 256" style="enable-background:new 0 0 250 256;" xml:space="preserve">
<style type="text/css">
	.st0{display:none;}
	.st1{display:inline;}
</style>
<g class="st0">
	<g class="st1">
		<path d="M70.5,96.6h23.4v75.2H70.5V96.6z M82.2,59.3c7.5,0,13.5,6.1,13.5,13.5c0,7.5-6.1,13.6-13.5,13.6
			c-7.5,0-13.6-6.1-13.6-13.6C68.6,65.3,74.7,59.3,82.2,59.3 M108.5,171.8h23.4v-37.2c0-9.8,1.9-19.3,14-19.3
			c12,0,12.1,11.2,12.1,19.9v36.5h23.3v-41.2c0-20.2-4.4-35.8-28-35.8c-11.4,0-19,6.2-22.1,12.1h-0.3V96.6h-22.4V171.8z"/>
	</g>
	<path class="st1" d="M125,5.7C57.6,5.7,2.7,60.6,2.7,128c0,67.4,54.9,122.3,122.3,122.3S247.3,195.4,247.3,128
		C247.3,60.6,192.4,5.7,125,5.7z M125,234.6c-58.8,0-106.6-47.8-106.6-106.6C18.4,69.2,66.2,21.4,125,21.4
		c58.8,0,106.6,47.8,106.6,106.6C231.6,186.8,183.8,234.6,125,234.6z"/>
</g>
<g>
	<g>
		<g>
			<path d="M165.7,94.4c0,4-3.3,7.3-7.3,7.3c-4,0-7.3-3.3-7.3-7.3c0-4,3.3-7.3,7.3-7.3C162.4,87,165.7,90.3,165.7,94.4z
				 M156.6,127.1c0,16.9-13.8,30.7-30.7,30.7c-16.9,0-30.7-13.8-30.7-30.7c0-16.9,13.8-30.7,30.7-30.7
				C142.8,96.4,156.6,110.2,156.6,127.1z M145.5,127.1c0-10.8-8.8-19.7-19.7-19.7c-10.8,0-19.7,8.8-19.7,19.7
				c0,10.8,8.8,19.7,19.7,19.7C136.7,146.8,145.5,138,145.5,127.1z M188,102.5c0-20.7-16.8-37.4-37.4-37.4H99.5
				C78.8,65,62,81.8,62,102.5v51.1c0,20.7,16.8,37.4,37.4,37.4h51.1c20.7,0,37.4-16.8,37.4-37.4V102.5z M175.7,153
				c0,14.2-11.5,25.7-25.7,25.7h-50c-14.2,0-25.7-11.5-25.7-25.7v-50c0-14.2,11.5-25.7,25.7-25.7h50c14.2,0,25.7,11.5,25.7,25.7V153
				z"/>
		</g>
		<path d="M125,6C57.7,6,3,60.7,3,128c0,67.3,54.7,122,122,122s122-54.7,122-122C247,60.7,192.3,6,125,6z M125,234.4
			c-58.6,0-106.4-47.7-106.4-106.4C18.6,69.4,66.4,21.6,125,21.6c58.6,0,106.4,47.7,106.4,106.4C231.4,186.6,183.6,234.4,125,234.4z
			"/>
	</g>
</g>
</svg>
